<svg xmlns="http://www.w3.org/2000/svg" fill="none" viewBox="0 0 144 144" id="Javascript--Streamline-Svg-Logos" height="144" width="144">
  <desc>
    Javascript Streamline Icon: https://streamlinehq.com
  </desc>
  <path fill="#f7df1e" d="M1.5 1.5h141v141H1.5V1.5Z" stroke-width="1.5"></path>
  <path fill="#000000" d="m38.57475 119.3298 10.79025 -6.530099999999999c2.0816999999999997 3.6909 3.9753 6.813599999999999 8.51745 6.813599999999999 4.35405 0 7.09905 -1.7031 7.09905 -8.32785V66.2325h13.2504v45.2403c0 13.72395 -8.044500000000001 19.9707 -19.781399999999998 19.9707 -10.59975 0 -16.75275 -5.48985 -19.87605 -12.114899999999999" stroke-width="1.5"></path>
  <path fill="#000000" d="m85.42815 117.91005000000001 10.78905 -6.2467500000000005c2.8401 4.6381499999999996 6.53145 8.04525 13.061700000000002 8.04525 5.4903 0 8.9913 -2.745 8.9913 -6.531000000000001 0 -4.54305 -3.5964 -6.1522499999999996 -9.654 -8.80155l-3.3117 -1.4206500000000002c-9.55995 -4.0692 -15.90165 -9.18 -15.90165 -19.9701 0 -9.9381 7.5717 -17.51025 19.4031 -17.51025 8.42385 0 14.48115 2.93445 18.834600000000002 10.600950000000001l-10.31685 6.62505c-2.2716 -4.0695 -4.73175 -5.67825 -8.51745 -5.67825 -3.88065 0 -6.3417 2.46075 -6.3417 5.67825 0 3.9753 2.46105 5.58465 8.139299999999999 8.0457l3.31245 1.4196c11.2632 4.827450000000001 17.60475 9.7485 17.60475 20.82195 0 11.92635 -9.3699 18.45645 -21.957900000000002 18.45645 -12.3042 0 -20.25495 -5.867850000000001 -24.134999999999998 -13.53465Z" stroke-width="1.5"></path>
</svg>